<?xml version="1.0" standalone="no"?>
<!DOCTYPE svg PUBLIC "-//W3C//DTD SVG 20010904//EN"
 "http://www.w3.org/TR/2001/REC-SVG-20010904/DTD/svg10.dtd">
<svg version="1.0" xmlns="http://www.w3.org/2000/svg"
 width="225.000000pt" height="225.000000pt" viewBox="0 0 225.000000 225.000000"
 preserveAspectRatio="xMidYMid meet">

<g transform="translate(0.000000,225.000000) scale(0.100000,-0.100000)"
fill="#000000" stroke="none">
<path d="M1656 1455 c-106 -38 -153 -117 -134 -225 29 -161 217 -213 312 -87
16 22 18 32 10 45 -18 28 -42 26 -80 -7 -59 -52 -124 -38 -158 33 -32 68 -11
127 57 163 48 24 151 22 212 -6 65 -29 93 -55 121 -116 57 -120 -1 -247 -125
-274 -55 -12 -102 -6 -261 34 -81 19 -127 25 -200 24 l-95 -2 -5 71 c-4 51
-10 76 -25 92 -44 49 -53 50 -557 50 -430 0 -476 -2 -508 -18 -57 -28 -70 -67
-70 -215 0 -141 10 -180 55 -215 28 -22 30 -22 532 -22 l505 0 34 34 c30 30
34 40 34 84 0 28 5 54 11 57 5 4 51 7 102 7 70 0 122 -8 214 -31 135 -34 205
-38 279 -16 105 31 178 133 178 250 0 169 -147 305 -329 304 -38 0 -88 -6
-109 -14z m-1130 -300 c-4 -12 4 -15 42 -15 53 0 72 -12 72 -47 0 -31 -26 -42
-86 -36 l-52 6 -31 -102 -32 -101 -55 0 c-50 0 -55 2 -49 19 14 45 45 162 45
170 0 6 -16 11 -36 13 -44 4 -65 29 -48 56 8 11 27 18 60 20 29 2 52 9 57 18
12 21 121 20 113 -1z m355 -140 l-45 -155 -53 0 c-29 0 -53 5 -53 10 0 9 30
124 45 171 6 16 1 19 -32 19 -58 0 -81 31 -47 64 18 19 75 21 91 5 9 -9 14 -5
19 15 6 24 10 26 64 26 l57 0 -46 -155z m347 133 c15 -15 17 -241 2 -269 -8
-15 -22 -19 -61 -19 -37 0 -50 4 -46 13 2 6 21 74 42 150 21 75 41 137 45 137
3 0 11 -5 18 -12z"/>
</g>
</svg>
